<?xml version="1.0" encoding="UTF-8" standalone="no"?>
<!DOCTYPE svg PUBLIC "-//W3C//DTD SVG 1.1//EN" "http://www.w3.org/Graphics/SVG/1.1/DTD/svg11.dtd">
<svg width="100%" height="100%" viewBox="0 0 2835 2363" version="1.1" xmlns="http://www.w3.org/2000/svg" xmlns:xlink="http://www.w3.org/1999/xlink" xml:space="preserve" xmlns:serif="http://www.serif.com/" style="fill-rule:evenodd;clip-rule:evenodd;stroke-linecap:square;stroke-miterlimit:2;">
    <path id="splash-inside-negative" d="M2631.34,1304.99L2730.26,1304.99L2730.26,1599.36C2730.3,1601.65 2730.26,1602.9 2730.26,1602.9L2730.26,1599.36C2729.95,1574.49 2722.73,1427.37 2595.63,1427.37L2532.93,1427.37C2554.93,1390.52 2583.15,1355.57 2620.71,1318.44C2624.4,1313.94 2627.95,1309.45 2631.34,1304.99ZM1216.84,1308.94C1218.9,1321.39 1223.06,1333.25 1230.1,1347.54C1251.16,1390.35 1290.83,1426.9 1345.91,1454.27C1348.19,1455.4 1350.38,1456.47 1352.51,1457.48L1351.14,1575.67C1330.13,1479.3 1319.14,1427.37 1216.84,1427.37L1216.84,1308.94ZM1828.69,1306.36L1828.69,1312.48C1808.36,1353.3 1785.23,1398.69 1774.05,1419.19C1772.94,1421.22 1771.83,1423.24 1770.72,1425.24L1685.33,1425.24L1685.33,1548.89C1674.23,1561.32 1662.52,1573.32 1649.92,1585.24C1644.47,1590.4 1639.32,1595.07 1634.27,1599.4L1548.96,1599.4L1548.96,1458.44C1549.18,1458.32 1549.4,1458.19 1549.62,1458.07C1577.38,1442.16 1601.86,1422.58 1633.23,1391.18C1658.14,1366.25 1673.3,1348.82 1705.15,1306.36L1828.69,1306.36ZM132.414,1552.73L281.248,1249.74C281.248,1249.74 285.91,1252.54 295.235,1258.13C299.079,1260.44 303.439,1262.87 308.313,1265.41C291.883,1322.05 285.384,1341.75 274.675,1368.98C268.984,1383.45 257.648,1406.88 249.1,1422.22C221.811,1445.45 192.06,1484.86 164.363,1523.51C162.644,1525.1 160.893,1526.71 159.114,1528.34L132.414,1552.73ZM1955.76,927.354C1957.12,944.452 1957.49,963.811 1957.38,994.074C1957.22,1041.83 1957.67,1051.98 1961.25,1080.28C1964.02,1102.22 1965.6,1130.28 1964.94,1145.88C1961.76,1221.26 1952.72,1266.83 1927.28,1335.92C1914.2,1371.4 1913.71,1376.43 1923.28,1376.43C1936.27,1376.43 1974.82,1357.64 1998.42,1339.81C2001.11,1337.78 2003.5,1335.91 2003.72,1335.67C2003.94,1335.42 2006.52,1333.22 2009.43,1330.77C2012.71,1328.02 2016.02,1325.01 2019.33,1321.79L2019.33,1406.66C2011.54,1413.99 2003.26,1421.33 1994.38,1428.76C1949.89,1434.15 1918.99,1455.96 1900.53,1508.11C1894.69,1514.13 1888.99,1520.46 1882.96,1527.65L1882.96,1258.4C1910.16,1187.93 1919.76,1157.24 1928.56,1114.43C1937.94,1068.79 1945.18,1013.94 1939.68,960.025C1938.6,949.488 1937.31,938.306 1935.9,927.354L1955.76,927.354ZM1007.5,1306.39L1162.97,1306.39L1162.97,1427.37L1029.64,1427.37C1022.97,1410.8 1017.72,1393.54 1014.21,1376.31C1009.78,1354.6 1007.55,1331.18 1007.5,1306.39ZM2587.71,1116.17C2588.11,1125.57 2586.6,1135.9 2583.17,1146.29C2576.34,1166.96 2563.51,1188.2 2534.32,1226.66L2512.78,1226.66L2512.78,1254.78C2497.46,1274.88 2486.28,1289.98 2478.33,1301.29C2449.04,1342.97 2423.88,1385.87 2404.07,1427.37L2376.41,1427.37L2376.41,1368.71C2391.34,1342.25 2406.21,1317.23 2423.06,1289.92C2452.88,1241.59 2461.81,1225.64 2462.93,1218.73C2464.43,1209.39 2452.39,1217.22 2435.43,1236.61C2419.08,1255.31 2400.22,1281.72 2376.41,1319.36L2376.41,1267.87C2388.14,1248.51 2397.35,1234.01 2406.35,1220.55C2442.88,1165.9 2479.19,1125.91 2512.78,1103.14L2512.78,1116.17L2587.71,1116.17ZM2322.14,1039.02L2322.14,1311.55C2293.21,1362.3 2273.07,1396.22 2253.34,1427.37L2185.77,1427.37L2185.77,1368.95C2221.19,1309.74 2251.62,1243.13 2279.58,1164.62C2283.25,1154.31 2293.98,1122.74 2303.42,1094.46C2311.26,1070.98 2317.24,1053.22 2322.14,1039.02ZM2322.14,1360.14L2322.14,1409.21L2317.78,1416.56C2316.16,1419.29 2314.55,1422.02 2312.93,1424.75L2311.38,1427.37L2282.64,1427.37C2294.03,1408.29 2306.69,1386.69 2322.14,1360.14ZM482.233,1119.66C507.392,1127.43 529.67,1136.15 549.069,1145.82C546.664,1165.1 544.768,1184.59 543.571,1203.01C542.501,1219.46 542.24,1267.34 543.129,1284.21C545.113,1321.88 549.516,1366.42 554.492,1401.49C539.916,1409.39 524.128,1415.36 507.129,1419.4C492.583,1422.85 477.841,1425.18 462.9,1426.39C461.693,1388.42 461.325,1338.66 461.796,1302.44C465.972,1301.52 469.312,1300.24 471.814,1298.62C477.641,1294.84 480.555,1289.83 480.555,1283.6C480.555,1273.88 475.427,1266.35 465.17,1261.03C464.538,1260.7 463.894,1260.37 463.239,1260.05C467.305,1208.42 473.703,1161.27 482.233,1119.66ZM768.069,1201.93C769.346,1209.63 771.18,1217.17 773.571,1224.57C778.7,1240.42 786.159,1254.52 795.95,1266.88C805.74,1279.23 817.745,1288.9 831.965,1295.9C846.185,1302.89 862.152,1306.39 879.869,1306.39L896.549,1306.39C895.416,1308.56 894.148,1310.74 892.742,1312.94C889.303,1318.31 884.327,1323.33 878.545,1327.26C865.753,1335.95 860.819,1340.12 855.213,1346.97C845.356,1359.01 837.175,1373.46 829.006,1393.29C821.369,1411.83 818.022,1414.96 811.408,1409.78C810.25,1408.87 805.551,1404.16 800.966,1399.32C790.171,1387.92 786.183,1385.32 778.652,1384.78C773.519,1384.41 772.489,1384.62 767.88,1386.89C764.321,1388.65 760.104,1391.74 756.591,1395.01C740.752,1385.72 726.19,1374.94 712.903,1362.67C718.358,1312.63 730.092,1267.93 746.912,1234.31C751.78,1224.58 756.995,1215.44 758.58,1213.85C759.18,1213.25 760.685,1211.12 761.923,1209.11C762.807,1207.67 765.233,1204.9 768.069,1201.93ZM573.285,1159.8C588.154,1170.07 600.136,1182.22 609.231,1196.26C611.21,1199.32 613.028,1202.53 614.684,1205.92C612.444,1235.28 611.728,1291.86 612.685,1342.62C612.243,1343.51 611.791,1344.38 611.329,1345.25C600.744,1365.08 586.525,1380.98 568.671,1392.94C568.623,1391.08 568.571,1389.37 568.513,1387.86C568.246,1380.9 567.662,1367.31 567.215,1357.66C566.136,1334.37 565.623,1242.05 566.489,1227.08C567.737,1205.5 568.235,1200.04 571.026,1177.3C571.753,1171.38 572.507,1165.54 573.285,1159.8ZM1685.33,1242.32L1682.57,1245.04C1651.96,1275.31 1629.35,1295.93 1612.33,1309.1C1610.59,1310.45 1605.47,1314.49 1600.96,1318.08C1596.45,1321.67 1591.48,1325.51 1589.92,1326.61C1588.36,1327.72 1586.72,1328.92 1586.27,1329.29C1583.1,1331.9 1562.55,1345.93 1554.85,1350.74C1545.92,1356.31 1533.14,1363.57 1528.73,1365.58C1527.61,1366.09 1523.93,1367.79 1520.57,1369.36C1511.04,1373.8 1492.94,1379.47 1480.8,1381.82C1471.14,1383.69 1468.34,1383.91 1458.24,1383.57C1450.22,1383.3 1444.97,1382.69 1440.99,1381.57C1425.43,1377.17 1420.48,1369.38 1427.04,1359.64C1430.2,1354.95 1433.46,1352.04 1454.05,1335.56C1466,1326 1476.69,1316.33 1486.29,1306.36L1548.96,1306.36L1548.96,1199.64C1557.38,1172.25 1561.14,1144.06 1560.28,1114.86C1559.55,1090.26 1555.89,1067.56 1548.96,1045.34L1548.96,927.354L1685.33,927.354L1685.33,1242.32ZM870.705,924.029C871.302,924.603 871.764,925.09 872.039,925.451C873.206,926.981 874.652,928.724 875.253,929.325C877.448,931.52 883.047,940.375 886.262,946.738C892.422,958.925 896.749,970.812 901.119,987.545C902.525,992.931 904.592,1000.83 905.71,1005.09C910.623,1023.82 921.269,1040.69 932.834,1048.09C942.999,1054.59 951.013,1056.66 966.001,1056.64C977.193,1056.63 982.851,1055.91 996.276,1052.8C1016.53,1048.1 1045.23,1036.67 1077.95,1020.44C1080.36,1024.28 1082.64,1028.21 1084.77,1032.25L1015.52,1118.85C1008.29,1119.32 1000.16,1121.38 976.953,1128.72C979.327,1106.16 974.554,1083.82 954.346,1068.62C942.796,1059.93 930.569,1053.58 917.282,1050.09C903.995,1046.59 891.058,1044.84 878.47,1044.84C862.413,1044.84 848.16,1047.43 835.707,1052.6C832.983,1049.38 830.815,1047.76 827.369,1046.09C817.73,1041.4 816.964,1041.25 807.193,1042.12C801.96,1042.58 795.528,1045.29 785.953,1051.06C781.746,1053.6 767.735,1067.48 763.727,1073.09C758.648,1080.19 752.219,1090.43 748.518,1097.32C746.708,1100.68 744.878,1103.99 744.453,1104.66C742.531,1107.7 737.044,1120.65 730.791,1136.9C730.1,1138.69 729.233,1140.9 728.865,1141.8C728.497,1142.69 727.401,1145.81 726.43,1148.73C725.459,1151.65 724.368,1154.77 724.006,1155.67C722.418,1159.61 715.395,1184.21 712.708,1195.25C709.073,1210.18 706.814,1219.84 706.08,1223.58C705.658,1225.73 704.19,1232.82 702.816,1239.32C696.438,1269.55 691.706,1303.1 688.873,1337.21C677.431,1323.38 667.494,1308.65 659.061,1293C662.008,1241.05 666.785,1194.71 672.68,1161.38C674.908,1148.79 681.086,1122.09 684.199,1111.6C687.575,1100.22 696.008,1074.07 697.883,1069.16C698.74,1066.91 701.639,1059.02 704.325,1051.61C710.414,1034.82 716.479,1019.52 720.194,1011.59C721.761,1008.24 723.952,1003.44 725.064,1000.93C728.617,992.889 740.352,972.339 743.455,968.722C743.864,968.245 744.675,966.959 745.257,965.866C746.3,963.904 748.695,960.642 751.777,956.826C759.087,952.644 766.703,948.764 774.62,945.186C803.267,932.242 835.294,925.19 870.705,924.029ZM1366.05,948.644L1284.68,1130.16L1207.42,953.741C1205.38,954.595 1203.39,955.465 1201.46,956.346C1198.99,957.47 1195.13,959.21 1192.89,960.213C1187.59,962.583 1162.02,975.349 1157.79,977.734C1156,978.749 1150.12,981.878 1144.74,984.687C1139.35,987.497 1134.58,990.083 1134.13,990.434C1133.68,990.785 1130.92,992.327 1128.01,993.861C1125.09,995.395 1119.39,998.488 1115.36,1000.73C1107.45,1005.12 1099.68,1009.31 1092.08,1013.26L1216.84,1258.13L1216.84,1269.01C1221.53,1241.78 1236.18,1219.38 1256.16,1210.55C1270.57,1204.19 1283.17,1204.8 1309.31,1213.11C1332.9,1220.62 1344.8,1222.43 1370.4,1222.43L1371.65,1222.43L1461.88,1047.5C1460.47,1044.09 1458.95,1040.7 1457.31,1037.33C1444.72,1011.38 1429.43,992.358 1405.49,972.877C1393.31,962.959 1380.17,954.887 1366.05,948.644ZM2158.95,1110.58C2157.48,1123.02 2155.82,1134.53 2153.88,1146.05C2149.1,1174.43 2141.89,1202.69 2132.73,1229.46L2079.96,1229.46C2093.37,1196.79 2102.5,1157.54 2107.6,1110.58L2158.95,1110.58ZM2511.7,927.126C2493.09,949.642 2476.84,974.261 2467.7,995.068C2459.84,1012.99 2456.84,1024.78 2454.65,1046.42C2452.37,1069.04 2448.63,1079.83 2430.96,1114.86C2418.04,1140.48 2411.79,1152.13 2376.41,1215.27L2376.41,927.354C2376.41,927.354 2441.54,927.193 2511.7,927.126ZM324.278,1210.21C314.898,1205.6 306.383,1200.79 298.731,1195.75C280.083,1183.48 266.329,1168.9 257.471,1152C248.613,1135.1 244.184,1114.61 244.184,1090.54C244.184,1053.96 252.809,1023.4 270.059,998.865C287.309,974.327 310.037,955.691 338.243,942.957C366.449,930.224 396.869,923.857 429.505,923.857C433.214,923.857 436.904,923.925 440.574,924.062C423.681,949.366 407.886,975.823 394.14,1003.64C379.349,1033.58 379.012,1051.81 368.799,1077.32C352.91,1117 343.007,1146.16 324.278,1210.21ZM1918.9,927.354C1921.21,946.56 1921.66,960.34 1921.67,992.441C1921.7,1031.04 1921.28,1038.49 1917.56,1065.08C1912.2,1103.48 1900.32,1147.4 1882.96,1193.44L1882.96,1028.81C1882.96,962.931 1800.79,939.605 1750.9,931.515C1750.49,930.011 1750.03,928.62 1749.52,927.354L1918.9,927.354ZM2064.26,1110.58C2062.07,1118.74 2059.94,1125.34 2057.87,1130.31C2054.44,1138.57 2050.38,1145.23 2047.19,1147.87C2044.02,1150.48 2042.86,1150.74 2039.87,1149.53C2035.89,1147.94 2031.04,1134.38 2027.45,1114.86C2027.19,1113.46 2026.94,1112.03 2026.69,1110.58L2064.26,1110.58ZM2322.14,948.44C2308.54,979.203 2297.77,1008.05 2280.38,1057.32C2263.63,1104.78 2255.82,1123.7 2254.18,1120.78C2252.79,1118.31 2254.59,1105.96 2267.84,1026.72C2274.55,986.576 2280.26,955.23 2286.26,927.354L2322.14,927.354L2322.14,948.44ZM611.793,934.391C591.935,970.066 577.015,1007.85 566.496,1048.76C563.509,1060.37 560.63,1073.69 557.962,1088.03L556.781,1090.3C556.781,1090.3 552.819,1087.96 544.893,1083.3C536.967,1078.64 526.477,1073.4 513.423,1067.57C508.092,1065.19 502.566,1062.9 496.845,1060.72C499.685,1051.19 502.671,1042.09 505.797,1033.45C516.462,1003.96 529.498,975.419 545.078,947.491C546.146,947.939 547.253,948.406 548.406,948.894C568.038,957.209 590.257,949.875 611.793,934.391ZM2019.33,1051.83C2017.44,1031.51 2015.67,1007.68 2013.94,979.383C2012.58,957.245 2011.52,940.942 2010.49,927.354L2019.33,927.354L2019.33,1051.83ZM502.768,933.371C509.477,935.115 514.676,936.529 519.32,937.932C511.463,950.549 503.987,963.424 496.947,976.501C483.716,1001.08 473.416,1022.99 462.812,1049.63C459.684,1048.84 456.567,1048.15 453.46,1047.55C465.215,1010.58 482.024,971.68 502.768,933.371ZM2645.34,927.205C2655.16,927.243 2663.44,927.291 2669.66,927.354C2710.77,927.765 2723.97,870.307 2723.97,870.307L2723.97,1046.24L2703.35,1046.24C2693.56,993.605 2669.72,951.772 2645.34,927.205Z" style="fill:rgb(204,204,204);"/>
    <path id="splash-inside" d="M164.363,1523.51C144.441,1551.31 125.588,1578.71 109.484,1599.4L132.414,1552.73L159.114,1528.34C160.893,1526.71 162.644,1525.1 164.363,1523.51ZM1900.53,1508.11C1892.13,1531.83 1886.32,1561.82 1882.96,1599.4L1882.96,1527.65C1888.99,1520.46 1894.69,1514.13 1900.53,1508.11ZM1685.33,1599.4L1634.27,1599.4C1639.32,1595.07 1644.47,1590.4 1649.92,1585.24C1662.52,1573.32 1674.23,1561.32 1685.33,1548.89L1685.33,1599.4ZM1685.33,1306.36L1705.15,1306.36C1673.3,1348.82 1658.14,1366.25 1633.23,1391.18C1601.86,1422.58 1577.38,1442.16 1549.62,1458.07C1549.4,1458.19 1549.18,1458.32 1548.96,1458.44L1548.96,1425.24L1406.3,1425.24L1406.3,1306.36L1486.29,1306.36C1476.69,1316.33 1466,1326 1454.05,1335.56C1433.46,1352.04 1430.2,1354.95 1427.04,1359.64C1420.48,1369.38 1425.43,1377.17 1440.99,1381.57C1444.97,1382.69 1450.22,1383.3 1458.24,1383.57C1468.34,1383.91 1471.14,1383.69 1480.8,1381.82C1492.94,1379.47 1511.04,1373.8 1520.57,1369.36C1523.93,1367.79 1527.61,1366.09 1528.73,1365.58C1533.14,1363.57 1545.92,1356.31 1554.85,1350.74C1562.55,1345.93 1583.1,1331.9 1586.27,1329.29C1586.72,1328.92 1588.36,1327.72 1589.92,1326.61C1591.48,1325.51 1596.45,1321.67 1600.96,1318.08C1605.47,1314.49 1610.59,1310.45 1612.33,1309.1C1629.35,1295.93 1651.96,1275.31 1682.57,1245.04L1685.33,1242.32L1685.33,1306.36ZM1216.84,1269.01L1216.84,1308.94C1218.9,1321.39 1223.06,1333.25 1230.1,1347.54C1251.16,1390.35 1290.83,1426.9 1345.91,1454.27C1348.19,1455.4 1350.38,1456.47 1352.51,1457.48L1352.51,1259.53L1371.65,1222.43L1370.4,1222.43C1344.8,1222.43 1332.9,1220.62 1309.31,1213.11C1283.17,1204.8 1270.57,1204.19 1256.16,1210.55C1236.18,1219.38 1221.53,1241.78 1216.84,1269.01ZM2019.33,1406.66L2019.33,1427.37C2010.59,1427.37 2002.27,1427.81 1994.38,1428.76C2003.25,1421.33 2011.54,1414 2019.33,1406.66ZM896.549,1306.39L1007.5,1306.39C1007.55,1331.18 1009.78,1354.6 1014.21,1376.31C1017.72,1393.54 1022.97,1410.8 1029.64,1427.37L877.071,1427.37C840.24,1427.37 806.556,1420.03 776.019,1405.34C769.344,1402.13 762.869,1398.69 756.591,1395.01C760.104,1391.74 764.321,1388.65 767.88,1386.89C772.489,1384.62 773.519,1384.41 778.652,1384.78C786.183,1385.32 790.171,1387.92 800.966,1399.32C805.551,1404.16 810.25,1408.87 811.408,1409.78C818.022,1414.96 821.369,1411.83 829.006,1393.29C837.175,1373.46 845.356,1359.01 855.213,1346.97C860.819,1340.12 865.753,1335.95 878.545,1327.26C884.327,1323.33 889.303,1318.31 892.742,1312.94C894.148,1310.74 895.416,1308.56 896.549,1306.39ZM2631.34,1304.99C2627.95,1309.45 2624.4,1313.94 2620.71,1318.44C2583.15,1355.57 2554.93,1390.52 2532.93,1427.37L2404.07,1427.37C2423.88,1385.87 2449.04,1342.97 2478.33,1301.29C2486.28,1289.98 2497.46,1274.88 2512.78,1254.78L2512.78,1304.99L2631.34,1304.99ZM308.313,1265.41C315.262,1269.04 323.257,1272.9 332.299,1277.02C347.684,1284.01 364.817,1290.3 383.699,1295.9C402.581,1301.49 421.579,1304.29 440.694,1304.29C449.208,1304.29 456.242,1303.67 461.796,1302.44C461.325,1338.66 461.693,1388.42 462.9,1426.39C454.856,1427.04 446.755,1427.37 438.596,1427.37C414.819,1427.37 389.993,1424.92 364.118,1420.03C338.243,1415.13 325.404,1411.67 301.16,1403.04C286.04,1397.66 268.168,1405.99 249.1,1422.22C257.648,1406.88 268.984,1383.45 274.675,1368.98C285.384,1341.75 291.883,1322.05 308.313,1265.41ZM2322.14,1311.55L2322.14,1360.14C2306.69,1386.69 2294.03,1408.28 2282.64,1427.37L2253.34,1427.37C2273.07,1396.22 2293.21,1362.3 2322.14,1311.55ZM2322.14,1427.37L2322.14,1409.21L2317.78,1416.56C2316.16,1419.29 2314.55,1422.02 2312.93,1424.75L2311.38,1427.37L2322.14,1427.37ZM1828.69,1425.24L1770.72,1425.24C1771.83,1423.24 1772.94,1421.22 1774.05,1419.19C1785.23,1398.69 1808.36,1353.3 1828.69,1312.48L1828.69,1425.24ZM549.069,1145.82C551.935,1147.25 554.739,1148.7 557.481,1150.18C563.069,1153.17 568.337,1156.38 573.285,1159.8C572.507,1165.54 571.753,1171.38 571.026,1177.3C568.235,1200.04 567.737,1205.5 566.489,1227.08C565.623,1242.05 566.136,1334.37 567.215,1357.66C567.662,1367.31 568.246,1380.9 568.513,1387.86C568.571,1389.37 568.623,1391.08 568.671,1392.94C568.439,1393.1 568.205,1393.25 567.971,1393.41C563.599,1396.3 559.107,1398.99 554.492,1401.49C549.516,1366.42 545.113,1321.88 543.129,1284.21C542.24,1267.34 542.501,1219.46 543.571,1203.01C544.768,1184.59 546.664,1165.1 549.069,1145.82ZM2010.49,927.354C2011.52,940.942 2012.58,957.245 2013.94,979.383C2015.67,1007.68 2017.44,1031.51 2019.33,1051.83L2019.33,1110.58L2026.69,1110.58C2026.94,1112.03 2027.19,1113.46 2027.45,1114.86C2031.04,1134.38 2035.89,1147.94 2039.87,1149.53C2042.86,1150.74 2044.02,1150.48 2047.19,1147.87C2050.38,1145.23 2054.44,1138.57 2057.87,1130.31C2059.94,1125.34 2062.07,1118.74 2064.26,1110.58L2107.6,1110.58C2102.5,1157.54 2093.37,1196.79 2079.96,1229.46L2019.33,1229.46L2019.33,1321.79C2016.02,1325.01 2012.71,1328.02 2009.43,1330.77C2006.52,1333.22 2003.94,1335.42 2003.72,1335.67C2003.5,1335.91 2001.11,1337.78 1998.42,1339.81C1974.82,1357.64 1936.27,1376.43 1923.28,1376.43C1913.71,1376.43 1914.2,1371.4 1927.28,1335.92C1952.72,1266.83 1961.76,1221.26 1964.94,1145.88C1965.6,1130.28 1964.02,1102.22 1961.25,1080.28C1957.67,1051.98 1957.22,1041.83 1957.38,994.074C1957.49,963.811 1957.12,944.452 1955.76,927.354L2010.49,927.354ZM2286.26,927.354C2280.26,955.23 2274.55,986.576 2267.84,1026.72C2254.59,1105.96 2252.79,1118.31 2254.18,1120.78C2255.82,1123.7 2263.63,1104.78 2280.38,1057.32C2297.77,1008.05 2308.54,979.203 2322.14,948.44L2322.14,1039.02C2317.24,1053.22 2311.26,1070.98 2303.42,1094.46C2293.98,1122.74 2283.25,1154.31 2279.58,1164.62C2251.62,1243.13 2221.19,1309.74 2185.77,1368.95L2185.77,1229.46L2132.73,1229.46C2141.89,1202.69 2149.1,1174.43 2153.88,1146.05C2155.82,1134.53 2157.48,1123.02 2158.95,1110.58L2185.77,1110.58L2185.77,927.354L2286.26,927.354ZM2376.41,1319.36L2376.41,1368.71C2391.34,1342.25 2406.21,1317.23 2423.06,1289.92C2452.88,1241.59 2461.81,1225.64 2462.93,1218.73C2464.43,1209.39 2452.39,1217.22 2435.43,1236.61C2419.08,1255.31 2400.22,1281.72 2376.41,1319.36ZM688.873,1337.21C691.706,1303.1 696.438,1269.55 702.816,1239.32C704.19,1232.82 705.658,1225.73 706.08,1223.58C706.814,1219.84 709.073,1210.18 712.708,1195.25C715.395,1184.21 722.418,1159.61 724.006,1155.67C724.368,1154.77 725.459,1151.65 726.43,1148.73C727.401,1145.81 728.497,1142.69 728.865,1141.8C729.233,1140.9 730.1,1138.69 730.791,1136.9C737.044,1120.65 742.531,1107.7 744.453,1104.66C744.878,1103.99 746.708,1100.68 748.518,1097.32C752.219,1090.43 758.648,1080.19 763.727,1073.09C767.735,1067.48 781.746,1053.6 785.953,1051.06C795.528,1045.29 801.96,1042.58 807.193,1042.12C816.964,1041.25 817.73,1041.4 827.369,1046.09C830.815,1047.76 832.983,1049.38 835.707,1052.6C832.975,1053.73 830.329,1054.99 827.769,1056.38C813.549,1064.07 801.894,1074.21 792.803,1086.8C783.712,1099.39 776.952,1113.37 772.522,1128.76C768.093,1144.14 765.879,1159.53 765.879,1174.91C765.879,1184.12 766.609,1193.12 768.069,1201.93C765.233,1204.9 762.807,1207.67 761.923,1209.11C760.685,1211.12 759.18,1213.25 758.58,1213.85C756.995,1215.44 751.78,1224.58 746.912,1234.31C730.092,1267.93 718.358,1312.63 712.903,1362.67C707.381,1357.58 702.078,1352.21 696.996,1346.6C694.208,1343.52 691.499,1340.39 688.873,1337.21ZM614.684,1205.92C623.17,1223.24 627.413,1244.86 627.413,1270.75C627.413,1299.05 622.504,1323.01 612.685,1342.62C611.728,1291.86 612.444,1235.27 614.684,1205.92ZM751.777,956.826C748.695,960.642 746.3,963.904 745.257,965.866C744.675,966.959 743.864,968.245 743.455,968.722C740.352,972.339 728.617,992.889 725.064,1000.93C723.952,1003.44 721.761,1008.24 720.194,1011.59C716.479,1019.52 710.414,1034.82 704.325,1051.61C701.639,1059.02 698.74,1066.91 697.883,1069.16C696.008,1074.07 687.575,1100.22 684.199,1111.6C681.086,1122.09 674.908,1148.79 672.68,1161.38C666.785,1194.71 662.008,1241.05 659.061,1293C654.04,1283.68 649.551,1274.04 645.595,1264.08C633.474,1233.54 627.413,1202.42 627.413,1170.72C627.413,1140.41 633.124,1110.69 644.546,1081.55C655.969,1052.42 672.636,1025.96 694.548,1002.18C710.947,984.387 730.023,969.268 751.777,956.826ZM2511.7,927.126C2560.58,927.079 2611.89,927.077 2645.34,927.205C2669.72,951.772 2693.56,993.608 2703.35,1046.24L2512.78,1046.24L2512.78,1103.14C2479.19,1125.91 2442.88,1165.9 2406.35,1220.55C2397.35,1234.01 2388.14,1248.51 2376.41,1267.87L2376.41,1215.27C2411.79,1152.13 2418.04,1140.48 2430.96,1114.86C2448.63,1079.83 2452.37,1069.04 2454.65,1046.42C2456.84,1024.78 2459.84,1012.99 2467.7,995.068C2476.84,974.261 2493.09,949.642 2511.7,927.126ZM440.574,924.062C460.897,924.817 480.635,927.663 499.787,932.599C500.813,932.863 501.806,933.12 502.768,933.371C482.022,971.684 465.212,1010.59 453.46,1047.55C443.985,1045.74 434.602,1044.84 425.309,1044.84C413.653,1044.84 404.096,1046.69 396.636,1050.38C389.177,1054.08 385.447,1060.32 385.447,1069.1C385.447,1077.41 389.177,1084.11 396.636,1089.19C404.096,1094.28 414.702,1098.9 428.456,1103.05C431.756,1104.05 435.212,1105.1 438.822,1106.21C438.457,1108.89 438.348,1110.78 438.541,1111.65C438.82,1112.92 439.209,1112.78 441.441,1107.01C452.224,1110.32 464.33,1114.08 477.758,1118.3C479.259,1118.75 480.751,1119.21 482.233,1119.66C473.703,1161.27 467.305,1208.42 463.239,1260.05C453.25,1255.08 440.49,1250.31 424.959,1245.75C408.408,1240.89 390.109,1235.22 370.062,1228.74C353.017,1223.01 337.755,1216.83 324.278,1210.21C343.007,1146.16 352.91,1117 368.799,1077.32C379.012,1051.81 379.349,1033.58 394.14,1003.64C407.886,975.823 423.681,949.366 440.574,924.062ZM1935.9,927.354C1937.31,938.306 1938.6,949.488 1939.68,960.025C1945.18,1013.94 1937.94,1068.79 1928.56,1114.43C1919.76,1157.24 1910.16,1187.93 1882.96,1258.4L1882.96,1193.44C1900.32,1147.4 1912.2,1103.48 1917.56,1065.08C1921.28,1038.49 1921.7,1031.04 1921.67,992.441C1921.66,960.34 1921.21,946.56 1918.9,927.354L1935.9,927.354ZM2693.2,1116.17L2693.2,1189.44C2689.27,1201.67 2684.48,1214.09 2678.76,1226.66L2534.32,1226.66C2563.51,1188.2 2576.34,1166.96 2583.17,1146.29C2586.6,1135.9 2588.11,1125.57 2587.71,1116.17L2693.2,1116.17ZM1548.96,1045.34L1548.96,1199.64C1557.38,1172.25 1561.14,1144.06 1560.28,1114.86C1559.55,1090.26 1555.89,1067.56 1548.96,1045.34ZM1015.52,1118.85L952.838,1197.24C961.889,1181.23 974.205,1154.83 976.953,1128.72C1000.16,1121.38 1008.29,1119.32 1015.52,1118.85ZM557.962,1088.03C560.63,1073.69 563.509,1060.37 566.496,1048.76C577.015,1007.85 591.935,970.066 611.793,934.391C633.53,918.763 654.571,894.833 671.558,870.307L557.962,1088.03ZM519.32,937.932C527.818,940.501 534.454,943.033 545.078,947.491C529.498,975.419 516.462,1003.96 505.797,1033.45C502.671,1042.09 499.685,1051.19 496.845,1060.72C488.56,1057.55 479.866,1054.59 470.765,1051.83C468.106,1051.03 465.454,1050.29 462.812,1049.63C473.416,1022.99 483.716,1001.08 496.947,976.501C503.987,963.424 511.463,950.549 519.32,937.932ZM870.705,924.029C874.191,923.914 877.713,923.857 881.267,923.857C928.821,923.857 970.314,933.764 1005.75,953.578C1036.8,970.941 1060.86,993.227 1077.95,1020.44C1045.23,1036.67 1016.53,1048.1 996.276,1052.8C982.851,1055.91 977.193,1056.63 966.001,1056.64C951.013,1056.66 942.999,1054.59 932.834,1048.09C921.269,1040.69 910.623,1023.82 905.71,1005.09C904.592,1000.83 902.525,992.931 901.119,987.545C896.749,970.812 892.422,958.925 886.262,946.738C883.047,940.375 877.448,931.52 875.253,929.325C874.652,928.724 873.206,926.981 872.039,925.451C871.764,925.09 871.302,924.603 870.705,924.029ZM1497.07,927.354L1375.59,927.354L1366.05,948.644C1380.17,954.887 1393.31,962.959 1405.49,972.877C1429.43,992.358 1444.72,1011.38 1457.31,1037.33C1458.95,1040.7 1460.47,1044.09 1461.88,1047.5L1511.24,951.795C1507.45,943.074 1503.15,935.077 1497.07,927.354ZM1207.42,953.741C1205.38,954.595 1203.39,955.465 1201.46,956.346C1198.99,957.47 1195.13,959.21 1192.89,960.213C1187.59,962.583 1162.02,975.349 1157.79,977.734C1156,978.749 1150.12,981.878 1144.74,984.687C1139.35,987.497 1134.58,990.083 1134.13,990.434C1133.68,990.785 1130.92,992.327 1128.01,993.861C1125.09,995.395 1119.39,998.488 1115.36,1000.73C1107.45,1005.12 1099.68,1009.31 1092.08,1013.26L1048.31,927.354L1195.86,927.354L1207.42,953.741ZM1749.52,927.354C1750.03,928.621 1750.49,930.012 1750.9,931.515C1740.87,929.889 1732.15,928.878 1725.66,928.26L1726.4,927.693L1726.85,927.354L1749.52,927.354Z" style="fill:rgb(195,0,0);"/>
    <path id="splash-outside" d="M1882.96,1193.44L1882.96,1258.4C1881.13,1263.14 1879.22,1268.07 1877.22,1273.19C1853.16,1334.94 1842.94,1371.22 1842.94,1394.9C1842.94,1403.9 1844.15,1407.86 1848.06,1411.65C1851.41,1414.9 1856.18,1416.42 1863.04,1416.42C1866.02,1416.42 1867.19,1416.88 1869.07,1418.76C1871.66,1421.35 1871.7,1423.15 1869.32,1430.71C1862.8,1451.37 1819.69,1523.42 1790.71,1562.11C1768.96,1591.14 1741.97,1619.75 1735.86,1620.25C1734.09,1620.4 1733.91,1620.15 1734.22,1617.99C1734.42,1616.65 1734.91,1615.56 1735.3,1615.56C1735.7,1615.56 1736.03,1614.91 1736.03,1614.11C1736.03,1613.31 1736.52,1611.94 1737.13,1611.05C1737.74,1610.17 1738.5,1608.34 1738.83,1606.99C1739.15,1605.65 1739.89,1603.99 1740.48,1603.32C1741.06,1602.65 1742.28,1600.08 1743.19,1597.61C1744.1,1595.14 1745.77,1591.28 1746.89,1589.04C1748.22,1586.39 1749.3,1582.2 1749.95,1577.12C1750.94,1569.52 1750.92,1569.24 1749.22,1567.54C1747.53,1565.85 1747.34,1565.84 1743.65,1567.09C1737.3,1569.24 1727.12,1576.63 1693.59,1603.4C1642.99,1643.81 1619.91,1659.46 1572.8,1685.33C1564.05,1690.13 1554.33,1695.76 1551.21,1697.84C1544.65,1702.19 1537.21,1709.51 1535.62,1713.17C1534.39,1716.02 1534.66,1720.14 1536.24,1722.35C1538.22,1725.14 1541.48,1728.6 1543.06,1729.61C1544.55,1730.55 1549.87,1733.22 1550.76,1733.46C1552.66,1733.97 1558.11,1737.38 1558.11,1738.05C1558.11,1738.52 1558.48,1738.67 1558.93,1738.39C1560.29,1737.55 1559.84,1739.58 1558.31,1741.18C1552.54,1747.25 1527.94,1753.99 1492.75,1759.15C1472.1,1762.18 1468.54,1762.92 1465.23,1764.94C1459.33,1768.53 1463.25,1774.13 1475.99,1780.31C1485.12,1784.74 1495.9,1788.09 1509.14,1790.63C1511.55,1791.09 1522.85,1792.52 1527.5,1792.95C1536.75,1793.82 1564.65,1792.67 1574.02,1791.05C1638.38,1779.92 1691.52,1747.92 1761.76,1678C1790.9,1648.99 1809.38,1627.11 1834.78,1591.58C1855.45,1562.66 1869.96,1543.16 1882.96,1527.65L1882.96,1599.4C1886.32,1561.82 1892.13,1531.83 1900.53,1508.11C1908.88,1499.5 1917.51,1491.53 1927.78,1482.62C1939.21,1472.71 1944.66,1468.3 1975.97,1443.69C1982.38,1438.65 1988.51,1433.68 1994.38,1428.76C2002.27,1427.81 2010.59,1427.37 2019.33,1427.37L2019.33,1406.66C2049.88,1377.92 2072.84,1349.17 2094.05,1314C2109.04,1289.15 2122.18,1260.29 2132.73,1229.46L2185.77,1229.46L2185.77,1368.95C2159.05,1413.64 2129.48,1454.11 2095.98,1492.33C2081.32,1509.05 2057.74,1533.5 2021.94,1569.07C1893.38,1696.83 1863.9,1724.6 1821.31,1758.08C1748.24,1815.52 1695.54,1846.42 1637.68,1865.73C1596.48,1879.49 1557.34,1885.71 1511.9,1885.72C1460.3,1885.73 1426.1,1879.69 1343.87,1856.04C1286.08,1839.41 1264.71,1833.75 1220.23,1823.27C1120.99,1799.88 1082.24,1784.96 999.871,1738.4C970.237,1721.65 955.77,1714.32 952.357,1714.32C950.074,1714.32 949.973,1714.46 950.345,1717.22C950.56,1718.82 951.417,1720.9 952.248,1721.85C953.232,1722.97 953.332,1723.33 952.535,1722.86C951.862,1722.47 952.336,1723.42 953.588,1724.97C954.84,1726.52 957.71,1730.17 959.967,1733.09C970.567,1746.8 991.282,1768.51 1009.52,1785.03C1033.94,1807.15 1059.03,1824.24 1088.42,1838.76C1106.08,1847.49 1118.62,1852.77 1147.59,1863.69C1219,1890.61 1237.46,1899.94 1306.33,1943.91C1380.73,1991.41 1424.18,2011.18 1492.41,2028.55C1542.93,2041.41 1579.91,2046.9 1662.58,2053.81C1718.51,2058.49 1735.35,2060.5 1758.42,2065.24C1801.5,2074.11 1834.38,2093.45 1852.71,2120.72C1860.21,2131.87 1865.02,2142.35 1871.68,2162.98C1872.16,2167.18 1873.04,2171.66 1874.36,2176.43C1899.41,2267.26 1833.64,2292.31 1733.43,2318.41C1633.21,2344.51 1575.56,2305.15 1519.42,2276.65C1476.83,2255.03 1380.86,2209.19 1349.4,2175.74C1345.99,2171.76 1343.4,2168.77 1343.07,2168.41C1331.13,2155.28 1314.12,2132.84 1306.37,2120C1294.48,2100.29 1292.96,2090.03 1302.07,2091.08C1310.11,2092.01 1314.63,2094.15 1427.53,2150.58C1554.93,2214.26 1562.94,2218.05 1603.82,2234.05C1658.61,2255.49 1670.83,2258.91 1692.78,2258.99C1707.49,2259.04 1713.22,2257.92 1723.39,2253.01C1739.32,2245.3 1749.07,2230.26 1749.06,2213.38C1749.05,2187.82 1726.14,2159.5 1691.36,2142.07C1667.12,2129.93 1640.1,2121.75 1576.48,2107.29C1470.14,2083.12 1408.34,2063.51 1350.4,2035.54C1333.95,2027.6 1318.64,2019.44 1283.89,2000.09C1233.62,1972.11 1199.58,1955.94 1168.41,1945.26C1149.67,1938.84 1143.2,1937.29 1142.17,1938.95C1141.89,1939.39 1144.2,1942.19 1147.28,1945.17C1150.37,1948.15 1152.8,1950.86 1152.69,1951.2C1152.58,1951.54 1152.9,1951.81 1153.41,1951.81C1154.08,1951.81 1154.08,1952.1 1153.41,1952.91C1149.43,1957.71 1089.12,1936.45 1047.15,1915.46C985.116,1884.43 944.253,1851.12 836.978,1744.13C760.113,1667.47 727.401,1622.09 707.378,1564.33C693.271,1523.64 686.905,1481.83 685.912,1423.36C685.436,1395.35 686.474,1366.08 688.873,1337.21C691.499,1340.39 694.208,1343.52 696.996,1346.6C702.078,1352.21 707.381,1357.58 712.903,1362.67C711.109,1379.12 709.995,1396.16 709.602,1413.57C708.468,1463.81 715.12,1511.39 727.43,1541.09C730.153,1547.66 731.831,1548.18 731.053,1542.21C727.859,1517.71 727.126,1495.14 728.9,1475.97C729.72,1467.11 729.971,1465.08 730.963,1459.27C731.194,1457.93 731.582,1455.54 731.827,1453.97C732.073,1452.4 732.451,1450.5 732.668,1449.75C732.885,1449 733.196,1447.71 733.358,1446.89C736.937,1428.79 743.058,1413 751.067,1401.2C752.379,1399.27 754.341,1397.1 756.591,1395.01C762.869,1398.69 769.344,1402.13 776.019,1405.34C806.556,1420.03 840.24,1427.37 877.071,1427.37L1029.64,1427.37C1037.18,1446.06 1046.53,1463.85 1057.25,1479.68C1062.98,1488.13 1071.8,1500.44 1074.05,1503.14C1085.78,1517.12 1090.67,1522.83 1094.11,1526.51C1101.64,1534.57 1120.18,1553.1 1125.96,1558.35C1133.54,1565.23 1163.74,1590.5 1170.44,1595.56C1173.36,1597.77 1175.93,1599.78 1176.16,1600.03C1176.38,1600.28 1178.59,1602.13 1181.05,1604.14C1183.52,1606.16 1185.96,1608.17 1186.47,1608.62C1187.66,1609.67 1189.28,1610.94 1195.78,1615.95C1201.48,1620.34 1210.65,1627.88 1222.27,1637.72C1248.27,1659.74 1261.02,1665.86 1303.48,1676.68C1314.02,1679.37 1327.9,1683.24 1334.31,1685.28C1356.63,1692.39 1368.83,1694.72 1383.92,1694.72C1399.07,1694.73 1411.37,1691.94 1434.63,1683.2C1458.98,1674.05 1473.67,1669.59 1497.71,1664.04C1535.64,1655.28 1547.66,1651.74 1565.05,1644.17C1578.14,1638.47 1586.39,1633.94 1600.55,1624.7C1612.59,1616.85 1623.16,1608.95 1634.27,1599.4L1685.33,1599.4L1685.33,1548.89C1716.53,1513.94 1742.93,1475.49 1770.72,1425.24L1828.69,1425.24L1828.69,1312.48C1844.67,1280.39 1858.93,1251.12 1864.33,1238.91C1871.1,1223.61 1877.32,1208.41 1882.96,1193.44ZM2282.64,1427.37C2251.36,1479.79 2229.7,1513.22 2186.16,1578.43C2137.44,1651.41 2128.22,1666.11 2116.8,1688.95C2110.55,1701.47 2106.33,1712.05 2103.46,1722.41C2101.54,1729.35 2101.29,1731.7 2101.27,1743.29C2101.25,1755.97 2101.33,1756.57 2103.92,1764.01C2108.5,1777.12 2111.13,1781.34 2132.7,1810.21C2150.59,1834.15 2155.24,1840.85 2163.79,1854.97C2184.84,1889.76 2199.44,1930.95 2208.08,1979.97C2212.91,2007.41 2215.15,2031.62 2217.11,2077.91C2220.25,2151.69 2222.95,2174.77 2236.81,2246.44C2242.26,2274.63 2243.63,2283.91 2243.65,2292.86C2243.68,2305.29 2240.92,2309.76 2233.66,2309.07C2224.33,2308.18 2209.3,2297.87 2191.82,2280.35C2166.07,2254.54 2142.1,2219.25 2122.38,2178.13C2115.37,2163.53 2103.42,2135.82 2098.16,2121.98C2093.71,2110.28 2081.45,2080.15 2075.58,2066.48C2069.99,2053.48 2056.62,2027.68 2050.21,2017.51C2018.55,1967.32 1981.31,1941.1 1925.78,1929.89C1905.15,1925.73 1890.2,1924.69 1848.25,1924.51C1808.91,1924.34 1803.81,1923.9 1800.03,1920.4C1798.01,1918.53 1798,1918.43 1799.27,1915.36C1802.06,1908.67 1811.95,1900.28 1848.25,1873.85C1888.59,1844.48 1904.94,1831.98 1924.56,1815.49C1958.76,1786.76 1995.03,1751 2042.5,1699.22C2121.65,1612.87 2174.44,1546.65 2227.26,1467.43C2236.33,1453.84 2244.8,1440.87 2253.34,1427.37L2282.64,1427.37ZM416.741,2302.73C481.35,2298.03 544.582,2279.44 586.905,2252.71C605.928,2240.69 618.965,2227.58 625.599,2213.79C628.592,2207.57 628.936,2206.22 628.936,2200.73C628.936,2193.04 627.113,2190.09 620.441,2186.97C616.192,2184.98 615.122,2184.84 604.86,2184.91C593.129,2185 582.729,2186.5 543.242,2193.79C489.049,2203.8 458.046,2207.52 420.005,2208.58C392.276,2209.35 364.264,2207.57 315.131,2201.91C300.043,2200.17 270.893,2199.47 261.224,2200.61C229.716,2204.33 218.899,2216.98 229.378,2237.85C240.78,2260.57 272.983,2282.41 311.343,2293.45C326.72,2297.88 351.424,2301.97 368.996,2303C379.878,2303.64 406.278,2303.49 416.741,2302.73ZM614.684,1205.92C614.806,1204.32 614.932,1202.8 615.063,1201.37C619.028,1158.03 625.739,1120.51 639.661,1063.85C655.474,999.507 676.888,953.037 709.43,912.443C718.923,900.603 738.807,880.206 749.317,871.527C779.251,846.81 813.394,830.106 847.661,823.411C858.892,821.217 886.433,821.422 897.275,823.78C921.215,828.987 940.359,839.711 955.015,856.124C962.66,864.685 969.852,875.845 973.703,885.119C975.414,889.239 979.947,896.55 982.515,899.329C989.001,906.35 998.913,911.786 1009.86,914.328C1019.64,916.599 1039.84,916.145 1054.03,913.334C1077.86,908.613 1093.05,903.696 1151.27,881.86C1221.85,855.386 1254.28,848.341 1300.46,849.447C1338.08,850.348 1408.93,870.341 1443.11,887.598C1470.8,901.575 1486.59,914.06 1497.07,927.354L1375.59,927.354L1366.05,948.644C1352.98,942.867 1339.07,938.656 1324.29,935.996C1311.74,933.738 1278.94,933.976 1265.52,936.422C1246.54,939.882 1225.25,946.254 1207.42,953.741L1195.86,927.354L1048.31,927.354L1092.08,1013.26C1087.3,1015.74 1082.58,1018.14 1077.95,1020.44C1060.86,993.227 1036.8,970.941 1005.75,953.578C970.314,933.764 928.821,923.857 881.267,923.857C877.713,923.857 874.191,923.914 870.705,924.029C866.702,920.181 856.626,912.449 856.029,912.964C855.829,913.135 855.11,912.815 854.431,912.252C852.216,910.413 843.878,907.989 837.953,907.46C829.036,906.665 824.774,907.07 815.338,909.608C812.019,910.501 808.688,911.39 807.935,911.583C807.183,911.777 805.547,912.604 804.299,913.422C803.051,914.239 801.919,914.812 801.784,914.693C801.202,914.184 783.174,924.314 781.962,925.832C781.738,926.114 780.085,927.437 778.29,928.772C772.793,932.862 759.899,946.768 751.777,956.826C730.023,969.268 710.947,984.387 694.548,1002.18C672.636,1025.96 655.969,1052.42 644.546,1081.55C633.124,1110.69 627.413,1140.41 627.413,1170.72C627.413,1202.42 633.474,1233.54 645.595,1264.08C649.551,1274.04 654.04,1283.68 659.061,1293C658.646,1300.3 658.268,1307.72 657.928,1315.22C656.997,1335.76 657.507,1430.14 658.634,1445.81C666.193,1550.9 686.568,1611.42 737.777,1680.85C743.752,1688.96 759.86,1709.29 765.575,1715.95C769.835,1720.91 788.403,1741.98 789.306,1742.88C789.867,1743.44 807.47,1762.63 808.487,1763.8C808.936,1764.31 812.814,1768.35 817.105,1772.78C821.396,1777.21 839.247,1795.7 856.775,1813.88C874.303,1832.06 897.239,1855.38 907.743,1865.71C959.764,1916.84 999.051,1945.84 1069.65,1985.24C1125.03,2016.14 1143.88,2027.75 1167.59,2045.54C1199.74,2069.68 1230.06,2099.26 1244.18,2120.27C1249.67,2128.43 1254.78,2138.87 1256.59,2145.64C1258.32,2152.07 1258.98,2164.08 1257.93,2169.72C1255.08,2184.89 1247.2,2195.02 1238.23,2195.02C1231.43,2195.02 1226.14,2191.22 1210.46,2175.04C1175.49,2138.96 1160.05,2124.91 1142.26,2112.96C1127.81,2103.26 1117.34,2099.39 1112.51,2101.97C1110.32,2103.15 1109.15,2107.52 1109.67,2112.63C1109.91,2115.08 1111.17,2122.96 1112.46,2130.14C1116.77,2154.17 1116.99,2156.37 1116.99,2176.25C1116.99,2191.3 1116.67,2197.1 1115.52,2203.18C1112.22,2220.61 1105.33,2237.47 1098.46,2244.96C1090.44,2253.69 1087.98,2250.5 1085.94,2228.75C1082.2,2188.88 1076.55,2167.6 1062.19,2139.36C1047.93,2111.31 1025.51,2083.97 986.707,2047.29C905.888,1970.91 895.023,1959.21 821.815,1869.79C808.953,1854.08 790.259,1831.31 780.273,1819.19C727.853,1755.57 704.681,1724.35 682.183,1687.01C671.803,1669.79 658.479,1643.44 652.243,1627.81C634.444,1583.18 624.491,1535.98 618.768,1469.07C618.031,1460.45 617.611,1454.29 615.899,1427.04C615.687,1423.67 615.314,1415.96 615.069,1409.9C614.823,1403.84 614.436,1395.02 614.208,1390.31C613.51,1375.88 613.004,1359.58 612.685,1342.62C622.504,1323.01 627.413,1299.05 627.413,1270.75C627.413,1244.86 623.17,1223.24 614.684,1205.92ZM249.1,1422.22C268.168,1405.99 286.04,1397.66 301.16,1403.04C325.404,1411.67 338.243,1415.13 364.118,1420.03C389.993,1424.92 414.819,1427.37 438.596,1427.37C446.755,1427.37 454.856,1427.04 462.9,1426.39C462.964,1428.41 463.03,1430.4 463.099,1432.34C468.787,1593.19 471.501,1623.38 491.016,1742.88C501.885,1809.44 503.65,1825.07 503.656,1854.81C503.662,1889.64 498.584,1914.13 486.374,1938.14C475.831,1958.87 461.778,1974.37 441.373,1987.79C422.556,2000.16 403.246,2007.81 377.378,2013.11C365.714,2015.5 340.202,2016.15 330.23,2014.31C302.847,2009.26 284.297,1996.11 281.657,1979.89C279.199,1964.79 290.667,1944.77 313.608,1924.13C318.71,1919.53 333.168,1908.03 345.737,1898.57C381.865,1871.37 394.023,1860.77 407.312,1844.9C430.01,1817.78 441.416,1788.03 446.194,1743.5C447.933,1727.29 448.621,1680.34 447.407,1660.86C444.859,1620 440.593,1606.67 434.217,1619.64C431.863,1624.43 427.51,1637.4 422.023,1655.96C409.233,1699.23 397.292,1725.12 384.21,1737.95C378.877,1743.17 375.323,1745.25 371.608,1745.3C367.976,1745.34 365.235,1743.8 358.647,1738C355.357,1735.1 351.318,1732.43 348.766,1731.46C341.995,1728.89 339.824,1728.83 310.225,1735.25C292.279,1738.25 255.606,1740.1 292.824,1694.92C333.044,1646.09 263.047,1651.84 252.145,1667.1C170.208,1781.77 64.513,1835.83 58.527,1823.11C52.541,1810.39 100.431,1776.72 115.396,1749.78C130.362,1722.84 194.613,1653.3 143.831,1633.05C73.621,1605.05 129.288,1555.71 129.288,1555.71L128.689,1556.13L132.414,1552.73L109.484,1599.4C125.588,1578.71 144.441,1551.31 164.363,1523.51C200.518,1489.96 224.584,1461.93 244.133,1430.71C245.611,1428.35 247.293,1425.47 249.1,1422.22ZM2404.07,1427.37L2532.93,1427.37C2527.4,1436.64 2522.26,1446.03 2517.46,1455.6C2502.18,1486.11 2494.67,1506.59 2481.13,1554.72C2472.64,1584.89 2467.32,1598.7 2459.51,1610.8C2453.18,1620.62 2448.68,1625.74 2430.97,1643.31C2421.69,1652.51 2411.15,1663.53 2407.56,1667.8C2394.77,1682.96 2383.77,1701.62 2379.89,1714.72C2377.72,1722.07 2376.97,1736.71 2378.28,1746.55C2379.35,1754.66 2381.2,1764.36 2384.12,1776.8C2384.18,1777.22 2384.26,1777.65 2384.34,1778.08C2388.31,1798.94 2372.56,1866.09 2339.83,1869.43C2307.72,1872.71 2346.83,1772.23 2354.53,1723.6C2355.41,1719.76 2355.89,1716.2 2356.34,1711.81C2357.18,1703.65 2356.85,1694.46 2354.72,1666.16C2351.82,1627.77 2353.34,1591.67 2359.26,1558.43C2366.27,1519 2381.79,1474.07 2404.07,1427.37ZM2376.41,1319.36C2371.25,1327.51 2365.87,1336.18 2360.22,1345.42C2354.12,1355.4 2339.46,1380 2322.14,1409.21L2322.14,1427.37L2311.38,1427.37C2280.76,1479.08 2245.98,1538.18 2235.32,1556.8C2203.84,1611.76 2192.21,1638.38 2192.14,1655.67C2192.1,1667.36 2196.83,1671.31 2205.54,1666.86C2210.92,1664.12 2219.45,1655.34 2228.61,1643.12C2246.39,1619.38 2255.02,1604 2291.42,1531.09C2326.29,1461.26 2351.43,1412.96 2376.41,1368.71L2376.41,1319.36ZM1511.24,951.795C1518.07,967.512 1523.27,985.587 1534.39,1008.66C1540.29,1020.9 1545.13,1033.04 1548.96,1045.34L1548.96,1199.64C1544.53,1214.08 1538.79,1228.3 1531.75,1242.32C1519.9,1265.91 1505.19,1286.74 1486.29,1306.36L1406.3,1306.36L1406.3,1425.24L1548.96,1425.24L1548.96,1458.44C1502.71,1484.73 1453.97,1490.04 1399.37,1474.74C1380.77,1469.53 1368.23,1464.95 1352.51,1457.48L1352.51,1259.53L1371.65,1222.43C1389.17,1222.39 1396.37,1221.49 1407.73,1217.99C1428.49,1211.61 1448.1,1194.57 1459.76,1172.81C1479.13,1136.66 1479.76,1090.83 1461.88,1047.5L1511.24,951.795ZM568.671,1392.94C569.185,1412.92 569.131,1450.95 568.511,1454.26L568.511,1454.26C567.038,1462.11 564.379,1456.46 560.442,1437.13C558.444,1427.32 556.424,1415.12 554.492,1401.49C559.107,1398.99 563.599,1396.3 567.971,1393.41C568.205,1393.25 568.439,1393.1 568.671,1392.94ZM2376.41,1215.27L2376.41,1267.87C2364.69,1287.2 2350.46,1311.38 2331.4,1344.2C2328.21,1349.7 2325.12,1355 2322.14,1360.14L2322.14,1311.55C2333.82,1291.06 2346.92,1267.84 2362,1240.96C2367.29,1231.54 2372.07,1223.01 2376.41,1215.27ZM2079.96,1229.46C2079.67,1230.17 2079.38,1230.87 2079.08,1231.57C2073.89,1243.93 2061.59,1268.05 2056.22,1276.38C2045.49,1293.03 2032.41,1309.08 2019.33,1321.79L2019.33,1229.46L2079.96,1229.46ZM1216.84,1269.01C1215.79,1275.14 1215.24,1281.51 1215.24,1288.02C1215.25,1295.47 1215.75,1302.29 1216.84,1308.94L1216.84,1269.01ZM835.707,1052.6C836.607,1053.66 837.568,1054.9 838.655,1056.38C841.991,1060.91 850.518,1075.41 850.518,1076.55C850.518,1076.8 853.873,1084.24 857.975,1093.08C871.328,1121.86 879.12,1131.13 895.186,1137.34C913.226,1144.31 934.011,1142.41 971.911,1130.32C973.668,1129.76 975.348,1129.22 976.953,1128.72C974.205,1154.83 961.889,1181.23 952.838,1197.24L1015.52,1118.85L1015.77,1118.83C1028.87,1118.02 1032.73,1121.46 1032.69,1133.89C1032.66,1141.38 1031.06,1149.79 1025.26,1172.87C1013.37,1220.21 1007.43,1265.2 1007.5,1306.39L896.549,1306.39C901.158,1297.55 903.557,1288.79 904.146,1278.91C905.157,1261.92 899.151,1251.07 879.083,1233.62C874.818,1229.91 866.188,1221.87 859.904,1215.75C853.619,1209.62 846.708,1203.15 844.545,1201.36C842.382,1199.57 839.812,1197.42 838.832,1196.57C834.978,1193.25 825.219,1187.75 819.097,1185.46C818.199,1185.12 816.462,1184.44 815.238,1183.95C811.555,1182.48 795.211,1183.15 791.348,1184.94C783.475,1188.58 782.355,1189.16 782.098,1189.74C781.949,1190.08 781.373,1190.36 780.818,1190.36C779.793,1190.36 773.248,1196.49 768.069,1201.93C766.609,1193.12 765.879,1184.12 765.879,1174.91C765.879,1159.53 768.093,1144.14 772.522,1128.76C776.952,1113.37 783.712,1099.39 792.803,1086.8C801.894,1074.21 813.549,1064.07 827.769,1056.38C830.329,1054.99 832.975,1053.73 835.707,1052.6ZM1685.33,1242.32L1685.33,1306.36L1705.15,1306.36C1713.9,1294.69 1723.9,1281.14 1735.71,1265.03C1759.62,1232.4 1765.82,1222.94 1769.84,1212.86C1771.74,1208.11 1772.06,1206.28 1771.81,1201.36C1771.56,1196.48 1771.13,1195.01 1769.24,1192.53C1766.1,1188.41 1764.25,1187.64 1757.63,1187.68C1752.65,1187.71 1751.05,1188.13 1745.79,1190.76C1737.93,1194.7 1728.32,1201.38 1720.11,1208.62C1716.72,1211.62 1701.41,1226.45 1685.33,1242.32ZM2678.76,1226.66C2667.1,1252.25 2651.54,1278.47 2631.34,1304.99L2512.78,1304.99L2512.78,1254.78C2517.39,1248.73 2522.37,1242.23 2527.75,1235.24C2530.03,1232.29 2532.21,1229.44 2534.32,1226.66L2678.76,1226.66ZM324.278,1210.21C337.755,1216.83 353.017,1223.01 370.062,1228.74C390.109,1235.22 408.408,1240.89 424.959,1245.75C440.49,1250.31 453.25,1255.08 463.239,1260.05L463.104,1261.77C462.464,1270.01 462.028,1284.58 461.796,1302.44C456.242,1303.67 449.208,1304.29 440.694,1304.29C421.579,1304.29 402.581,1301.49 383.699,1295.9C364.817,1290.3 347.684,1284.01 332.299,1277.02C323.257,1272.9 315.262,1269.04 308.313,1265.41C310.405,1258.2 312.659,1250.39 315.103,1241.88C318.399,1230.42 321.44,1219.91 324.278,1210.21ZM2703.35,1046.24C2711.16,1088.2 2710.05,1137.03 2693.2,1189.44L2693.2,1116.17L2587.71,1116.17C2587.39,1108.7 2585.85,1101.82 2583.1,1095.99C2575.47,1079.79 2558.64,1078.55 2531.35,1092.18C2525.27,1095.22 2519.07,1098.88 2512.78,1103.14L2512.78,1046.24L2703.35,1046.24ZM611.793,934.391C627.968,905.33 647.416,877.668 670.431,850.841C680.358,839.27 707.572,812.246 719.12,802.493C790.986,741.791 871.586,707.603 966.817,697.428C971.306,696.948 976.273,696.403 977.856,696.215C979.438,696.028 985.498,695.642 991.322,695.358C997.146,695.074 1003.38,694.688 1005.18,694.5C1006.97,694.313 1028.82,693.954 1053.74,693.703C1113.93,693.097 1140.41,692.197 1186.77,689.179C1284.72,682.802 1339.38,685.896 1398.84,701.184C1449.05,714.094 1494.32,735.985 1524.97,762.18C1534.58,770.397 1546.94,783.407 1551.17,789.764C1553.37,793.058 1555.38,795.936 1555.64,796.16C1556.53,796.916 1563.01,807.673 1563.01,808.391C1563.01,808.782 1563.47,809.596 1564.03,810.2C1565.95,812.271 1579.3,839.212 1581.79,846.048C1588.05,863.245 1589.06,866.342 1590.39,872.453C1591.18,876.034 1591.82,881.088 1591.81,883.682C1591.81,887.616 1591.48,888.676 1589.88,890.068C1585.46,893.903 1581.06,890.933 1539.65,856.117C1515.46,835.776 1487.93,815.957 1466.07,803.146C1457.08,797.875 1431.92,785.359 1421.28,780.865C1376.29,761.854 1320.56,751.528 1272.12,753.231C1246.79,754.121 1227.95,755.951 1183.09,761.874C1163.72,764.433 1150.13,765.307 1130.86,765.233C1119.64,765.19 1109.72,765.015 1108.83,764.844C1107.93,764.673 1104.26,764.282 1100.66,763.975C1081.99,762.381 1058.74,758.669 1025.99,752.054C984.844,743.745 965.422,741.454 935.498,741.38C911.807,741.322 889.811,744.261 864.8,750.828C794.083,769.395 728.905,814.401 679.181,878.998C647.357,920.341 623.084,963.789 606.821,1008.52C593.118,1046.21 581.695,1097.79 573.285,1159.8C568.337,1156.38 563.069,1153.17 557.481,1150.18C554.739,1148.7 551.935,1147.25 549.069,1145.82C551.557,1125.88 554.59,1106.15 557.962,1088.03L671.558,870.307C654.571,894.833 633.53,918.763 611.793,934.391ZM462.812,1049.63C465.454,1050.29 468.106,1051.03 470.765,1051.83C479.866,1054.59 488.56,1057.55 496.845,1060.72C491.441,1078.85 486.561,1098.55 482.233,1119.66C480.751,1119.21 479.259,1118.75 477.758,1118.3C464.33,1114.08 452.224,1110.32 441.441,1107.01C443.051,1102.85 445.616,1095.77 449.787,1084.18C454.313,1071.6 458.587,1060.24 462.812,1049.63ZM2019.33,1051.83C2021.56,1075.74 2023.96,1094.8 2026.69,1110.58L2019.33,1110.58L2019.33,1051.83ZM1918.9,927.354C1918.31,922.462 1917.6,917.22 1916.75,911.236C1899.8,792.554 1839.13,687.771 1742.56,610.358C1710.49,584.657 1677.82,563.988 1615.65,530.086C1556.11,497.616 1552.32,490.345 1547.79,504.258C1543.88,516.245 1544.16,547.099 1587.99,571.979C1635.02,598.673 1687.12,632.353 1708.38,648.031C1784.18,703.943 1839.7,745.884 1861.24,830.448C1870.06,865.099 1810.04,850.118 1794.15,823.501C1741.83,735.862 1675.74,677.637 1577.63,632.732C1548.62,619.454 1529.63,612.87 1476.09,597.527C1404.7,577.071 1373.54,567.198 1318.16,547.499C1252.22,524.039 1231.9,517.78 1202.27,511.803C1163.51,503.982 1121.48,503.582 1072.1,510.564C1011.18,519.177 939.721,534.617 873.778,553.416C851.678,559.716 804.004,575.297 758.294,591.158C742.481,596.645 737.709,597.919 736.279,597.035C733.023,595.023 765.463,577.224 796.245,564.133C839.29,545.827 883.433,531.063 959.88,509.403C1020.72,492.165 1068.27,480.782 1096.95,476.589C1101.68,475.897 1106.48,475.18 1107.6,474.997C1124.33,472.268 1164.07,470.765 1182.5,472.166C1223.25,475.261 1255.23,484.076 1303.92,505.638C1343.73,523.262 1370.02,531.827 1374.05,528.482C1376.97,526.059 1374.81,520.611 1366.64,509.792C1354.91,494.265 1323.07,461.56 1309.19,450.79C1279.77,427.966 1246.23,415.396 1201.46,410.414C1183.91,408.461 1143.05,408.471 1122.7,410.432C1069.95,415.516 1031.77,423.38 939.885,448.089C883.556,463.237 865.848,467.261 854.948,467.39C842.681,467.536 840.946,464.613 848.56,456.63C869.909,434.248 954.73,399.231 1037.06,378.812C1098.32,363.617 1155.91,356.262 1213.6,356.262C1254.3,356.262 1282.45,358.982 1332.77,367.777C1372.39,374.702 1379.32,375.358 1387.4,372.958C1389.73,372.265 1392.94,370.56 1394.52,369.17C1397.93,366.173 1404.04,356.982 1405.44,352.734C1407.63,346.094 1403.38,337.851 1391.62,325.986C1379.89,314.153 1370.57,307.33 1336.16,285.382C1324.53,277.961 1318.61,272.711 1317.94,269.218C1317.61,267.459 1318.08,266.413 1320.12,264.367C1323.27,261.217 1328.74,259.418 1346.03,255.84C1358.82,253.193 1365.68,251.387 1370.07,249.217L1370.1,249.236C1404.19,233.214 1489.56,166.678 1583.86,146.859L1584.14,146.337C1596.19,145.233 1610.59,141.806 1646.66,132.243C1674.58,124.843 1693.77,121.802 1712.77,121.772C1736.77,121.733 1750.57,125.758 1775.26,139.999C1798.42,153.352 1809.36,158.039 1824.58,161.12C1860.31,168.354 1928.15,163.064 1975.56,149.346C2009.3,139.586 2029.24,130.444 2078.84,101.996C2094.3,93.122 2112.84,83.011 2120.02,79.526C2163.72,58.32 2186.44,60.063 2223.39,87.455C2236.22,96.971 2240.91,101.268 2272.23,132.24C2295.37,155.122 2303.42,162.542 2312.22,169.088C2339.36,189.281 2348.89,193.463 2398.37,206.918C2452.25,221.565 2469.28,227.049 2485.7,235.033C2513.13,248.365 2527.53,266.307 2539.14,301.581C2548.59,330.294 2552.79,356.72 2551.93,381.97C2551.3,400.6 2548.38,410.677 2541.83,416.775C2540.56,417.962 2535.51,421.082 2530.62,423.709C2520.85,428.956 2513.58,435.1 2505.73,444.723C2503.13,447.915 2492.61,462.278 2482.35,476.642C2472.09,491.006 2456.17,513.042 2446.97,525.61C2400.38,589.258 2383.26,614.848 2371.47,638.475C2361.84,657.78 2356.75,672.443 2352.27,693.735C2342.86,738.478 2341.14,744.742 2326.68,786.775C2307.86,841.514 2296.62,879.255 2286.26,927.354L2185.77,927.354L2185.77,1110.58L2158.95,1110.58C2161.88,1085.68 2164.04,1057.07 2166.14,1017.33C2175.81,834.005 2193.47,724.734 2222.9,666.306C2230.63,650.959 2242.27,634.444 2252.95,623.68C2270.9,605.588 2288.66,595.024 2318.34,584.775C2340.3,577.19 2351.3,571.078 2363.83,559.49C2374.72,549.42 2388.17,531.205 2396.99,514.593C2416.7,477.436 2430.1,421.564 2430.07,376.665C2430.05,351.756 2427.47,339.218 2418.88,322.392C2415.46,315.707 2413.45,312.969 2407.74,307.254C2400,299.501 2393.91,295.819 2385.6,293.86C2368.07,289.728 2352.54,296.459 2341.01,313.18C2333.45,324.152 2331.17,328.878 2309.39,378.706C2286.62,430.816 2260.06,477.636 2221.2,534.18C2214.87,543.382 2206.92,554.951 2203.53,559.888C2163.17,618.628 2148.95,661.868 2138.45,757.802C2133.34,804.585 2117.92,975.577 2115.13,1016.52C2113.03,1047.35 2110.19,1083.97 2108.57,1100.99C2108.27,1104.22 2107.94,1107.41 2107.6,1110.58L2064.26,1110.58C2072.22,1080.9 2080.91,1030.53 2089.81,962.244C2099.33,889.126 2104.29,827.03 2106.97,747.6C2108.52,701.783 2110.43,665.866 2112.32,647.215C2120.26,568.827 2140.22,522.411 2194.27,456.647C2216.9,429.116 2221.88,422.895 2229.66,412.439C2254.98,378.411 2268.64,347.297 2271.38,317.439C2274.35,285.012 2263.43,262.461 2237.21,246.887C2214.21,233.224 2174.98,229.482 2113.9,235.126C2066.16,239.538 2039.66,246.741 2013.61,262.381C1955.62,297.193 1895.57,378.961 1882.92,440.324C1880.45,452.299 1879.86,471.912 1881.6,484.255C1885.17,509.632 1892.87,531.435 1919.25,590.902C1943.89,646.454 1956.54,678.169 1969.05,715.771C1986.66,768.647 1998.11,818.024 2004.46,868.388C2007.18,889.968 2008.79,904.983 2010.49,927.354L1955.76,927.354C1954.78,914.965 1953.27,903.763 1951.03,890.46C1944.13,849.38 1935.37,804.828 1923.94,795.838C1922.7,794.863 1920.25,793.873 1918.51,793.639C1915.37,793.219 1915.31,793.262 1914.44,796.493C1913.3,800.749 1914.06,806.062 1919.67,832.995C1926.27,864.671 1926.48,865.764 1929.9,886.044C1931.9,897.911 1934,912.419 1935.9,927.354L1918.9,927.354ZM438.822,1106.21C435.212,1105.1 431.756,1104.05 428.456,1103.05C414.702,1098.9 404.096,1094.28 396.636,1089.19C389.177,1084.11 385.447,1077.41 385.447,1069.1C385.447,1060.32 389.177,1054.08 396.636,1050.38C404.096,1046.69 413.653,1044.84 425.309,1044.84C434.602,1044.84 443.985,1045.74 453.46,1047.55C451.41,1054 449.513,1060.39 447.775,1066.71C443.336,1082.86 439.92,1098.12 438.822,1106.21ZM2322.14,948.44C2331.8,926.584 2342.89,903.757 2358.8,871.944C2375.99,837.575 2387.54,813.167 2394.71,796.054C2404.55,772.553 2419.13,736.09 2428.1,712.506C2453.51,645.74 2459.73,633.466 2495.09,580.254C2519.25,543.898 2529.26,526.926 2544.4,496.638C2558.87,467.703 2562.84,463.972 2580.86,462.377C2607.26,460.04 2616.6,462.448 2624.62,473.653C2632.09,484.105 2634.82,508.751 2631.73,537.853C2628.91,564.489 2624.13,584.644 2615.39,606.816C2609.56,621.603 2583.78,679.117 2576.56,693.436C2559.74,726.82 2543.95,749.045 2521.87,770.452C2510.22,781.738 2503.72,787.046 2476.6,807.367C2444.68,831.289 2429.84,844.253 2414.36,861.743C2384.32,895.698 2362.24,933.908 2339.63,991.063C2334.53,1003.96 2329.6,1017.37 2322.14,1039.02L2322.14,948.44ZM1725.66,928.26C1732.15,928.878 1740.87,929.888 1750.9,931.515C1752.18,936.184 1752.95,941.94 1753.07,948.47C1753.43,967.247 1747.27,983.054 1736,992.319C1730.88,996.533 1716.09,1006.21 1713.18,1007.26C1702.98,1010.92 1696.97,1004.99 1694.45,988.769C1692.73,977.69 1694.06,964.702 1698.02,953.675C1699.52,949.516 1705.99,942.237 1710.06,940.136C1711.55,939.364 1713.13,938.295 1713.58,937.758C1714.03,937.222 1717.15,934.704 1720.52,932.162C1722,931.043 1723.83,929.655 1725.66,928.26ZM519.32,937.932C569.684,857.054 635.414,787.367 699.933,747.574C710.167,741.262 725.599,733.561 729.525,732.807C735.606,731.639 732.107,735.527 712.459,751.774C654.762,799.483 619.768,836.152 583.641,886.756C569.365,906.753 556.533,926.956 545.078,947.491C534.453,943.033 527.816,940.5 519.32,937.932ZM440.574,924.062C465.718,886.395 493.292,851.284 520.143,818.046C585.728,736.861 661.23,676.045 752.168,631.152C814.653,600.305 880.728,578.742 966.506,561.204C1021.44,549.973 1066.35,544.297 1107.28,543.411C1139.76,542.709 1160.07,544.796 1189.21,551.832C1219.66,559.184 1271.51,581.783 1280.34,591.55C1282.96,594.456 1283.09,594.842 1282.01,596.467C1279.18,600.731 1282.76,600.61 1157.39,600.685C1036.84,600.757 1031.24,600.884 992.74,604.405C933.394,609.832 869.702,625.156 815.303,647.094C691.351,697.082 593.554,781.619 521.06,901.442C514.67,912.004 508.563,922.668 502.768,933.371C501.806,933.12 500.813,932.863 499.787,932.599C480.635,927.663 460.897,924.817 440.574,924.062ZM1726.85,927.354L1749.52,927.354C1746.98,921.058 1743.28,917.806 1739.03,918.884C1738.05,919.132 1734.87,921.181 1731.95,923.437C1730.59,924.485 1728.76,925.892 1726.85,927.354ZM2511.7,927.126C2516.09,921.812 2520.61,916.619 2525.2,911.62C2533.03,907.847 2575.41,889.199 2616.19,906.221C2625.39,910.06 2635.41,917.201 2645.34,927.205C2611.89,927.077 2560.57,927.079 2511.7,927.126ZM1407.94,493.842C1390.52,487.74 1373.63,477.369 1332.99,447.809C1303.98,426.706 1284.03,415.414 1252.87,402.454C1233.66,394.464 1228.06,391.503 1227.73,389.167C1227.15,385.117 1235.43,383.159 1255.44,382.612C1273.16,382.128 1284.62,382.995 1301.43,386.093C1344.85,394.091 1376.68,412.523 1402.16,444.405C1420.41,467.26 1429.88,488.573 1424.26,494.189C1422.02,496.433 1414.91,496.282 1407.94,493.842ZM1647.41,428.058C1637.29,426.051 1621.85,419.19 1609.93,411.407C1590.78,398.892 1571.34,379.336 1561.84,363.032C1553.68,349.02 1541.82,311.332 1540.47,295.096C1539.21,279.971 1544.94,270.984 1557.22,268.82C1576.76,265.379 1607.86,287.665 1630.64,321.422C1647.62,346.582 1663.3,382.824 1667.27,406.074C1669.47,418.981 1667.17,426.14 1660.19,428.079C1656.83,429.013 1652.18,429.005 1647.41,428.058L1647.41,428.058Z" style="fill:black;"/>
    <path id="outline" d="M2730.26,1599.27C2729.94,1574.17 2722.59,1427.37 2595.63,1427.37L2376.41,1427.37L2376.41,927.354C2376.41,927.354 2611.74,926.775 2669.66,927.354C2710.77,927.765 2723.97,870.307 2723.97,870.307L2723.97,1046.24L2512.78,1046.24L2512.78,1116.17L2693.2,1116.17L2693.2,1226.66L2512.78,1226.66L2512.78,1304.99L2730.26,1304.99L2730.26,1599.27C2730.3,1601.62 2730.26,1602.9 2730.26,1602.9L2730.26,1599.27ZM556.781,1090.3C556.781,1090.3 552.819,1087.96 544.893,1083.3C536.967,1078.64 526.477,1073.4 513.423,1067.57C500.369,1061.74 486.15,1056.5 470.765,1051.83C455.38,1047.17 440.228,1044.84 425.309,1044.84C413.653,1044.84 404.096,1046.69 396.636,1050.38C389.177,1054.08 385.447,1060.32 385.447,1069.1C385.447,1077.41 389.177,1084.11 396.636,1089.19C404.096,1094.28 414.702,1098.9 428.456,1103.05C442.209,1107.21 458.643,1112.29 477.758,1118.3C508.528,1127.54 535.102,1138.16 557.481,1150.18C579.859,1162.19 597.109,1177.55 609.231,1196.26C621.352,1214.97 627.413,1239.8 627.413,1270.75C627.413,1300.32 622.051,1325.15 611.329,1345.25C600.606,1365.34 586.153,1381.4 567.971,1393.41C549.788,1405.42 529.508,1414.08 507.129,1419.4C484.751,1424.71 461.907,1427.37 438.596,1427.37C414.819,1427.37 389.993,1424.92 364.118,1420.03C338.243,1415.13 325.404,1411.67 301.16,1403.04C248.86,1384.44 163.634,1529.81 109.484,1599.4L281.248,1249.74C281.248,1249.74 285.91,1252.54 295.235,1258.13C304.559,1263.73 316.914,1270.02 332.299,1277.02C347.684,1284.01 364.817,1290.3 383.699,1295.9C402.581,1301.49 421.579,1304.29 440.694,1304.29C455.613,1304.29 465.986,1302.4 471.814,1298.62C477.641,1294.84 480.555,1289.83 480.555,1283.6C480.555,1273.88 475.427,1266.35 465.17,1261.03C454.913,1255.7 441.51,1250.61 424.959,1245.75C408.408,1240.89 390.109,1235.22 370.062,1228.74C341.157,1219.02 317.38,1208.02 298.731,1195.75C280.083,1183.48 266.329,1168.9 257.471,1152C248.613,1135.1 244.184,1114.61 244.184,1090.54C244.184,1053.96 252.809,1023.4 270.059,998.865C287.309,974.327 310.037,955.691 338.243,942.957C366.449,930.224 396.869,923.857 429.505,923.857C453.748,923.857 477.175,926.771 499.787,932.599C522.398,938.426 528.592,940.502 548.406,948.894C587.851,965.6 637.74,919.133 671.558,870.307L556.781,1090.3ZM1685.33,1425.24L1685.33,1599.4L1548.96,1599.4L1548.96,1425.24L1406.3,1425.24L1406.3,1306.36L1548.96,1306.36L1548.96,927.354L1685.33,927.354L1685.33,1306.36L1828.69,1306.36L1828.69,1425.24L1685.33,1425.24ZM1195.86,927.354L1284.68,1130.16L1375.59,927.354L1523.85,927.354L1352.51,1259.53L1352.51,1599.4C1343.2,1497.53 1319.14,1427.37 1216.84,1427.37L1216.84,1258.13L1048.31,927.354L1195.86,927.354ZM2322.14,927.354L2322.14,1427.37L2185.77,1427.37L2185.77,1229.46L2019.33,1229.46L2019.33,1427.37C1938.79,1427.37 1894.99,1464.56 1882.96,1599.4L1882.96,1028.81C1882.96,934.212 1713.52,927.354 1713.52,927.354L2019.33,927.354L2019.33,1110.58L2185.77,1110.58L2185.77,927.354L2322.14,927.354ZM627.413,1170.72C627.413,1140.41 633.124,1110.69 644.546,1081.55C655.969,1052.42 672.636,1025.96 694.548,1002.18C716.46,978.404 743.151,959.406 774.62,945.186C806.09,930.967 841.639,923.857 881.267,923.857C928.821,923.857 970.314,933.764 1005.75,953.578C1041.18,973.392 1067.52,999.617 1084.77,1032.25L952.838,1197.24C969.711,1167.4 997.935,1101.41 954.346,1068.62C942.796,1059.93 930.569,1053.58 917.282,1050.09C903.995,1046.59 891.058,1044.84 878.47,1044.84C858.889,1044.84 841.989,1048.69 827.769,1056.38C813.549,1064.07 801.894,1074.21 792.803,1086.8C783.712,1099.39 776.952,1113.37 772.522,1128.76C768.093,1144.14 765.879,1159.53 765.879,1174.91C765.879,1192.16 768.443,1208.71 773.571,1224.57C778.7,1240.42 786.159,1254.52 795.95,1266.88C805.74,1279.23 817.745,1288.9 831.965,1295.9C846.185,1302.89 862.152,1306.39 879.869,1306.39L1162.97,1306.39L1162.97,1427.37C1162.97,1427.37 905.51,1427.37 877.071,1427.37C840.24,1427.37 806.556,1420.03 776.019,1405.34C745.482,1390.65 719.141,1371.07 696.996,1346.6C674.85,1322.12 657.717,1294.62 645.595,1264.08C633.474,1233.54 627.413,1202.42 627.413,1170.72Z" style="fill:none;fill-rule:nonzero;stroke:black;stroke-width:25px;"/>
</svg>
